<svg xmlns="http://www.w3.org/2000/svg" version="1.1" xmlns:xlink="http://www.w3.org/1999/xlink" xmlns:svgjs="http://svgjs.dev/svgjs" width="1000" height="1000"><g clip-path="url(#SvgjsClipPath1060)"><rect width="1000" height="1000" fill="#ffffff"></rect><g transform="matrix(1.4,0,0,1.4,150,150)"><svg xmlns="http://www.w3.org/2000/svg" version="1.1" xmlns:xlink="http://www.w3.org/1999/xlink" xmlns:svgjs="http://svgjs.dev/svgjs" width="500" height="500"><svg xmlns="http://www.w3.org/2000/svg" xmlns:xlink="http://www.w3.org/1999/xlink" width="500" zoomAndPan="magnify" viewBox="0 0 375 374.999991" height="500" preserveAspectRatio="xMidYMid meet" version="1.0"><defs><clipPath id="4bdd0c202f"><path d="M 43 66 L 279.425781 66 L 279.425781 290 L 43 290 Z M 43 66 " clip-rule="nonzero"></path></clipPath><clipPath id="b3e6ba2d44"><path d="M 279.410156 111.074219 C 272.152344 121.730469 260.140625 126.941406 243.359375 126.941406 C 227.027344 126.941406 210.9375 123.539062 195.285156 116.734375 L 195.285156 273.875 C 195.285156 281.808594 198.234375 285.886719 203.894531 285.886719 L 208.429688 285.886719 L 208.429688 289.742188 L 160.828125 289.742188 L 160.828125 285.886719 L 165.585938 285.886719 C 173.746094 285.210938 174.421875 279.761719 174.195312 273.875 L 174.195312 106.304688 L 158.332031 97.457031 C 150.398438 92.921875 144.722656 89.746094 141.097656 87.929688 C 137.46875 86.109375 132.484375 83.847656 126.132812 81.125 C 113.429688 75.453125 103.226562 73.644531 91.664062 73.644531 C 79.878906 73.644531 69.449219 77.273438 60.375 84.753906 C 51.308594 92.019531 46.777344 102.675781 46.777344 116.507812 C 46.777344 128.984375 50.859375 138.5 59.027344 145.078125 C 66.960938 151.65625 76.035156 155.054688 86.242188 155.054688 C 100.742188 155.054688 113.214844 145.304688 113.214844 130.792969 C 113.214844 122.40625 108.460938 116.507812 101.429688 116.507812 C 96.21875 116.507812 93.269531 119.910156 93.269531 124.214844 C 93.269531 126.261719 93.949219 127.617188 95.089844 128.746094 C 89.878906 127.84375 87.15625 125.121094 87.15625 120.363281 C 87.15625 114.238281 92.605469 108.574219 100.761719 108.574219 C 111.644531 108.574219 118.222656 117.1875 118.222656 128.070312 C 118.222656 147.113281 104.164062 157.542969 84.445312 157.542969 C 73.335938 157.542969 63.582031 153.6875 55.421875 145.753906 C 47.265625 137.824219 43.152344 127.84375 43.152344 115.605469 C 43.152344 100.867188 48.359375 89.082031 59.027344 80.007812 C 69.460938 70.707031 83.066406 66.175781 99.609375 66.175781 C 121.601562 66.175781 145.640625 74.332031 164.679688 84.988281 C 174.433594 90.199219 183.722656 95.195312 193.023438 100.40625 C 211.839844 110.609375 233.605469 118.996094 252.886719 118.996094 C 265.8125 118.996094 273.972656 115.820312 277.375 109.46875 Z M 279.410156 111.074219 " clip-rule="nonzero"></path></clipPath><clipPath id="f10cff0e65"><path d="M 63 53 L 331.96875 53 L 331.96875 322 L 63 322 Z M 63 53 " clip-rule="nonzero"></path></clipPath><clipPath id="63269a8520"><path d="M 64.160156 179.027344 L 64.285156 184.179688 L 64.339844 186.746094 L 64.53125 189.308594 C 64.667969 191.015625 64.78125 192.722656 64.9375 194.417969 L 65.628906 199.492188 C 65.753906 200.339844 65.832031 201.1875 65.980469 202.023438 L 66.453125 204.53125 C 66.78125 206.203125 67.0625 207.890625 67.425781 209.539062 L 68.65625 214.488281 C 68.882812 215.3125 69.03125 216.148438 69.300781 216.953125 L 70.058594 219.382812 C 71.96875 225.902344 74.554688 232.175781 77.390625 238.289062 C 78.941406 241.28125 80.375 244.347656 82.160156 247.203125 L 83.4375 249.386719 C 83.867188 250.109375 84.273438 250.84375 84.761719 251.535156 L 87.5625 255.726562 C 102.796875 277.863281 124.867188 295.03125 149.820312 304.082031 L 154.523438 305.722656 L 159.289062 307.121094 L 160.476562 307.472656 L 161.6875 307.765625 L 164.105469 308.34375 L 166.511719 308.929688 L 171.394531 309.859375 L 172.613281 310.09375 L 173.847656 310.277344 L 178.75 310.976562 L 183.691406 311.449219 C 184.515625 311.542969 185.339844 311.574219 186.164062 311.609375 L 188.640625 311.722656 C 195.238281 311.972656 201.851562 311.746094 208.40625 311.011719 C 214.960938 310.242188 221.433594 308.976562 227.796875 307.246094 C 253.214844 300.296875 276.257812 285.289062 292.757812 264.800781 C 309.449219 244.457031 319.382812 218.804688 320.941406 192.507812 C 321.324219 185.941406 321.289062 179.332031 320.648438 172.765625 C 320.003906 166.199219 318.894531 159.691406 317.300781 153.269531 C 315.730469 146.851562 313.527344 140.601562 310.972656 134.5 L 310 132.21875 L 309.515625 131.074219 L 308.972656 129.957031 L 306.804688 125.492188 L 304.417969 121.128906 L 303.820312 120.046875 L 303.164062 118.984375 L 301.863281 116.859375 L 300.566406 114.746094 L 299.164062 112.6875 L 297.761719 110.632812 L 297.0625 109.605469 L 296.304688 108.609375 L 293.285156 104.644531 L 290.078125 100.835938 C 289.039062 99.535156 287.851562 98.371094 286.734375 97.140625 L 284.992188 95.351562 C 284.414062 94.753906 283.804688 94.1875 283.207031 93.601562 C 281.996094 92.449219 280.832031 91.261719 279.601562 90.144531 L 275.859375 86.820312 C 275.25 86.257812 274.582031 85.746094 273.929688 85.226562 L 271.960938 83.667969 L 269.996094 82.109375 L 269.011719 81.328125 L 267.984375 80.617188 C 265.238281 78.71875 262.535156 76.71875 259.644531 75.054688 C 253.992188 71.453125 247.925781 68.558594 241.765625 65.867188 C 216.972656 55.371094 188.753906 52.996094 161.867188 58.679688 C 188.140625 50.523438 217.367188 51.1875 243.777344 60.671875 C 250.332031 63.132812 256.808594 65.925781 262.921875 69.429688 C 266.050781 71.054688 268.980469 73.011719 271.960938 74.886719 L 273.082031 75.597656 L 274.15625 76.367188 L 276.300781 77.914062 L 278.449219 79.464844 C 279.160156 79.984375 279.882812 80.480469 280.5625 81.058594 C 291.671875 89.757812 301.421875 100.269531 309.289062 112.089844 C 325.15625 135.664062 333.113281 164.550781 331.675781 193.09375 L 331.539062 195.773438 L 331.472656 197.109375 L 331.335938 198.441406 L 330.785156 203.773438 L 329.980469 209.074219 C 329.867188 209.96875 329.6875 210.839844 329.507812 211.71875 L 328.976562 214.351562 C 327.484375 221.347656 325.550781 228.253906 322.964844 234.941406 C 320.375 241.632812 317.269531 248.085938 313.730469 254.3125 C 310.101562 260.496094 306.023438 266.382812 301.546875 271.976562 C 297.027344 277.527344 292.042969 282.691406 286.742188 287.503906 L 282.6875 291.03125 C 281.296875 292.148438 279.871094 293.246094 278.472656 294.351562 C 277.082031 295.484375 275.589844 296.476562 274.132812 297.515625 L 271.9375 299.066406 C 271.203125 299.574219 270.4375 300.027344 269.679688 300.511719 C 268.152344 301.449219 266.671875 302.457031 265.113281 303.335938 L 260.433594 305.96875 C 257.25 307.597656 254.074219 309.246094 250.773438 310.625 L 248.320312 311.710938 C 247.496094 312.050781 246.660156 312.355469 245.824219 312.683594 L 243.324219 313.644531 C 242.488281 313.972656 241.652344 314.289062 240.804688 314.546875 L 235.707031 316.21875 L 230.542969 317.644531 C 202.890625 324.886719 173 322.988281 146.667969 312.34375 C 140.089844 309.664062 133.726562 306.523438 127.636719 302.917969 C 121.589844 299.246094 115.816406 295.132812 110.402344 290.601562 L 106.457031 287.074219 L 104.492188 285.3125 L 102.628906 283.4375 L 98.910156 279.683594 C 97.710938 278.394531 96.582031 277.050781 95.40625 275.730469 L 93.667969 273.738281 C 93.066406 273.09375 92.570312 272.359375 92.015625 271.683594 L 88.796875 267.511719 C 88.242188 266.835938 87.777344 266.089844 87.269531 265.367188 L 85.789062 263.195312 C 84.804688 261.738281 83.777344 260.324219 82.929688 258.789062 C 68.171875 234.910156 61.605469 206.417969 64.148438 179.039062 " clip-rule="nonzero"></path></clipPath><clipPath id="SvgjsClipPath1060"><rect width="1000" height="1000" x="0" y="0" rx="350" ry="350"></rect></clipPath></defs><g clip-path="url(#4bdd0c202f)"><g clip-path="url(#b3e6ba2d44)"><path fill="#090f10" d="M 37.5 47.378906 L 337.441406 47.378906 L 337.441406 327.621094 L 37.5 327.621094 Z M 37.5 47.378906 " fill-opacity="1" fill-rule="nonzero"></path></g></g><g clip-path="url(#f10cff0e65)"><g clip-path="url(#63269a8520)"><path fill="#0f1215" d="M 37.5 47.378906 L 337.441406 47.378906 L 337.441406 327.621094 L 37.5 327.621094 Z M 37.5 47.378906 " fill-opacity="1" fill-rule="nonzero"></path></g></g></svg></svg></g></g></svg>